# xmcd CD database file
#
# Track frame offsets:
#	182
#	25327
#	51075
#	77527
#	102845
#	115670
#	128665
#	142432
#	155095
#	165282
#	179182
#	190595
#
# Disc length: 2701 seconds
#
# Revision: 0
# Processed by: cddbd v1.5.1PL0 Copyright (c) Steve Scherf et al.
# Submitted via: CDex 1.51
#
DISCID=9e0a8b0c
DTITLE=Fats Navarro - Fat Girl
DYEAR=1946
DGENRE=Jazz
TTITLE0=Boppin' a Riff
TTITLE1=Fat Boy
TTITLE2=Everything's Cool
TTITLE3=Webb City
TTITLE4=Callin' dr Jazz
TTITLE5=Fracture
TTITLE6=Maternity
TTITLE7=Stealin' Trash
TTITLE8=Just a Mystery
TTITLE9=Red Pepper
TTITLE10=Spinal
TTITLE11=Hollerin' and Screamin'
EXTD=YEAR: 1946
EXTT0=
EXTT1=
EXTT2=
EXTT3=
EXTT4=
EXTT5=
EXTT6=
EXTT7=
EXTT8=
EXTT9=
EXTT10=
EXTT11=
PLAYORDER=
